<svg aria-hidden="true" style="position: absolute; width: 0; height: 0; overflow: hidden;" version="1.1" xmlns="http://www.w3.org/2000/svg" xmlns:xlink="http://www.w3.org/1999/xlink">
<defs>
<symbol id="icon-apple-os" viewBox="0 0 26 32">
<path d="M21.72 16.968c0.045 4.833 4.24 6.442 4.287 6.462-0.035 0.113-0.67 2.292-2.21 4.543-1.331 1.946-2.713 3.884-4.889 3.924-2.139 0.039-2.826-1.268-5.271-1.268s-3.208 1.228-5.233 1.308c-2.101 0.079-3.701-2.104-5.043-4.043-2.743-3.965-4.839-11.205-2.024-16.092 1.398-2.427 3.897-3.964 6.609-4.003 2.063-0.039 4.010 1.388 5.271 1.388s3.627-1.716 6.114-1.464c1.041 0.043 3.965 0.421 5.842 3.168-0.151 0.094-3.488 2.036-3.452 6.077zM17.7 5.1c1.115-1.35 1.866-3.23 1.661-5.1-1.608 0.065-3.552 1.071-4.705 2.421-1.033 1.195-1.939 3.107-1.694 4.94 1.792 0.139 3.623-0.911 4.738-2.262z"></path>
</symbol>
<symbol id="icon-bookmark-thin" viewBox="0 0 32 32">
<path d="M6.667 0v32l9.333-8 9.333 8v-32h-18.667zM8 1.333h16v27.769l-8-6.859-8 6.859v-27.769z"></path>
</symbol>
<symbol id="icon-circle" viewBox="0 0 32 32">
<path d="M32 16c0 8.836-7.164 16-16 16s-16-7.164-16-16c0-8.836 7.164-16 16-16s16 7.164 16 16z"></path>
</symbol>
<symbol id="icon-clip" viewBox="0 0 32 32">
<path d="M14.983 14.437c0.397-0.397 0.397-1.042 0-1.439s-1.042-0.397-1.439 0l-5.383 5.383c-0.918 0.918-1.414 2.109-1.414 3.398s0.496 2.481 1.414 3.398c1.885 1.885 4.936 1.885 6.797 0l12.155-12.155c1.265-1.265 1.96-2.952 1.96-4.738s-0.695-3.473-1.96-4.738c-2.629-2.629-6.871-2.629-9.501 0l-12.13 12.13c-1.637 1.637-2.53 3.795-2.53 6.102s0.893 4.49 2.53 6.102c1.637 1.637 3.795 2.53 6.102 2.53s4.49-0.893 6.102-2.53l5.383-5.383c0.397-0.397 0.397-1.042 0-1.439s-1.042-0.397-1.439 0l-5.383 5.383c-1.24 1.24-2.902 1.935-4.664 1.935s-3.423-0.695-4.664-1.935-1.935-2.902-1.935-4.664 0.695-3.423 1.935-4.664l12.13-12.13c0.893-0.893 2.059-1.364 3.299-1.364s2.431 0.496 3.299 1.364c0.893 0.893 1.364 2.059 1.364 3.299s-0.496 2.431-1.364 3.299l-12.155 12.155c-1.067 1.067-2.828 1.067-3.919 0-0.521-0.521-0.819-1.215-0.819-1.96s0.298-1.439 0.819-1.96l5.408-5.383z"></path>
</symbol>
<symbol id="icon-cloud-upload" viewBox="0 0 32 32">
<path d="M15.323 13.563l-3.333 4.085-0.983-0.903 4.983-6.079 5.004 6.113-1.004 0.887-3.333-4.101v10.435h-1.333v-10.437zM24.667 26.667h-17.333c-3.308 0-6-2.691-6-6 0-2.904 2.073-5.384 4.931-5.899l1.039-0.187 0.057-1.052c0.247-4.597 4.041-8.196 8.64-8.196s8.393 3.599 8.637 8.196l0.059 1.052 1.040 0.187c2.856 0.515 4.931 2.995 4.931 5.899 0 3.309-2.692 6-6 6zM25.971 13.456c-0.283-5.268-4.629-9.456-9.971-9.456s-9.689 4.188-9.972 9.456c-3.427 0.617-6.028 3.608-6.028 7.211 0 4.049 3.284 7.333 7.333 7.333h17.333c4.049 0 7.333-3.284 7.333-7.333 0-3.603-2.601-6.593-6.029-7.211z"></path>
</symbol>
<symbol id="icon-control-panel-thin" viewBox="0 0 32 32">
<path d="M22.667 10.667c0.736 0 1.333 0.599 1.333 1.333s-0.597 1.333-1.333 1.333-1.333-0.599-1.333-1.333 0.597-1.333 1.333-1.333zM22.667 8c-2.209 0-4 1.791-4 4s1.791 4 4 4 4-1.791 4-4-1.791-4-4-4zM9.333 16c-2.209 0-4 1.791-4 4s1.791 4 4 4 4-1.791 4-4-1.791-4-4-4zM22.667 5.333c0.457 0 0.903 0.047 1.333 0.135v-2.801c0-0.736-0.596-1.333-1.333-1.333s-1.333 0.597-1.333 1.333v2.801c0.431-0.088 0.876-0.135 1.333-0.135zM9.333 13.333c0.457 0 0.903 0.047 1.333 0.135v-10.801c0-0.736-0.596-1.333-1.333-1.333s-1.333 0.597-1.333 1.333v10.801c0.431-0.088 0.876-0.135 1.333-0.135zM22.667 18.667c-0.457 0-0.903-0.047-1.333-0.135v10.801c0 0.736 0.596 1.333 1.333 1.333s1.333-0.597 1.333-1.333v-10.801c-0.431 0.088-0.876 0.135-1.333 0.135zM9.333 26.667c-0.457 0-0.903-0.047-1.333-0.135v2.801c0 0.736 0.596 1.333 1.333 1.333s1.333-0.597 1.333-1.333v-2.801c-0.431 0.088-0.876 0.135-1.333 0.135z"></path>
</symbol>
<symbol id="icon-gear-thin" viewBox="0 0 32 32">
<path d="M16 11.555c-2.451 0-4.444 1.995-4.444 4.445s1.993 4.444 4.444 4.444 4.444-1.993 4.444-4.444-1.993-4.445-4.444-4.445zM16 21.777c-3.187 0-5.777-2.591-5.777-5.777s2.591-5.779 5.777-5.779 5.777 2.592 5.777 5.779c0 3.187-2.591 5.777-5.777 5.777zM14.409 30.667h3.181c0.505-1.472 0.891-3.268 2.809-4.067 1.995-0.823 3.555 0.261 4.847 0.896l2.248-2.251c-0.677-1.396-1.688-2.932-0.892-4.855 0.756-1.825 2.319-2.217 4.064-2.799v-3.184c-1.647-0.561-3.295-0.944-4.063-2.797-0.763-1.84 0.076-3.193 0.892-4.857l-2.249-2.248c-1.489 0.729-2.961 1.676-4.856 0.891-1.832-0.761-2.208-2.312-2.8-4.063h-3.181c-0.565 1.641-0.939 3.291-2.799 4.061-0.487 0.204-0.957 0.301-1.436 0.301-1.124 0-2.052-0.523-3.421-1.191l-2.249 2.248c0.765 1.567 1.668 2.983 0.892 4.857-0.761 1.833-2.312 2.205-4.063 2.797v3.184c1.635 0.557 3.291 0.94 4.063 2.797 0.775 1.871-0.1 3.243-0.892 4.857l2.249 2.249c1.933-0.967 3.14-1.605 4.856-0.892 1.837 0.763 2.207 2.317 2.8 4.063zM18.535 32h-5.071c-0.908-2.557-1.047-3.617-2.364-4.164-1.34-0.559-2.308 0.176-4.621 1.269l-3.585-3.585c1.164-2.449 1.823-3.287 1.271-4.62-0.549-1.321-1.589-1.449-4.164-2.364v-5.072c2.541-0.904 3.616-1.043 4.164-2.364s-0.095-2.151-1.271-4.621l3.585-3.584c2.321 1.104 3.288 1.82 4.62 1.271 1.323-0.549 1.443-1.58 2.367-4.165h5.069c0.909 2.557 1.051 3.619 2.365 4.164 1.335 0.555 2.279-0.159 4.623-1.269l3.583 3.584c-1.171 2.463-1.815 3.303-1.269 4.62 0.548 1.323 1.589 1.449 4.164 2.365v5.073c-2.541 0.903-3.617 1.043-4.165 2.364-0.537 1.3 0.059 2.081 1.272 4.619l-3.584 3.585c-2.304-1.093-3.289-1.827-4.608-1.273-1.317 0.547-1.44 1.528-2.38 4.168z"></path>
</symbol>
<symbol id="icon-plus" viewBox="0 0 32 32">
<path d="M29.714 18.286h-11.429v11.429c0 1.257-1.029 2.286-2.286 2.286s-2.286-1.029-2.286-2.286v-11.429h-11.429c-1.257 0-2.286-1.029-2.286-2.286s1.029-2.286 2.286-2.286h11.429v-11.429c0-1.257 1.029-2.286 2.286-2.286s2.286 1.029 2.286 2.286v11.429h11.429c1.257 0 2.286 1.029 2.286 2.286s-1.029 2.286-2.286 2.286z"></path>
</symbol>
<symbol id="icon-rocket" viewBox="0 0 32 32">
<path d="M31.931 0.056c-0.551-0.037-1.089-0.056-1.619-0.056-11.467 0-17.996 8.743-20.371 15.777l6.303 6.303c7.237-2.592 15.756-8.88 15.756-20.224 0-0.587-0.023-1.187-0.069-1.8zM16.895 18.96l-3.844-3.844c1.628-3.812 6.255-11.927 16.265-12.427-0.335 7.7-5.388 13.243-12.421 16.271zM24.189 21.011c-0.729 0.497-1.453 0.947-2.171 1.348-0.249 1.188-0.883 2.456-1.801 3.536-0.003-0.768-0.216-1.541-0.591-2.317-0.66 0.3-1.288 0.557-1.885 0.784 0.88 2.279-0.016 3.961-1.22 5.539 1.728-0.131 3.541-0.976 4.971-2.407 1.54-1.54 2.623-3.764 2.697-6.483zM8.429 12.385c-0.772-0.373-1.544-0.584-2.309-0.588 1.071-0.908 2.325-1.537 3.501-1.793 0.419-0.736 0.889-1.463 1.385-2.177-2.719 0.073-4.944 1.156-6.485 2.697-1.428 1.428-2.275 3.244-2.405 4.971 1.579-1.205 3.261-2.101 5.54-1.219 0.231-0.628 0.488-1.259 0.773-1.891zM18.747 13.269c-0.521-0.521-0.521-1.364 0-1.885s1.364-0.521 1.885 0c0.521 0.523 0.521 1.365 0 1.887s-1.365 0.52-1.885-0.001zM25.345 6.668c-1.040-1.040-2.729-1.040-3.771 0-1.041 1.041-1.041 2.732 0 3.772 1.041 1.041 2.731 1.041 3.772 0 1.040-1.040 1.040-2.729-0.001-3.772zM22.801 9.216c-0.364-0.364-0.364-0.957 0-1.32 0.361-0.364 0.956-0.364 1.32 0 0.363 0.363 0.361 0.956 0 1.32-0.365 0.363-0.957 0.363-1.32 0zM13.805 23.416c-1.989 5.080-7.737 8.277-13.805 8.584 0.292-5.719 3.543-11.568 8.853-13.537l1.073 1.075c-5.775 3.673-6.204 7.128-6.22 8.767 1.691-0.020 5.405-0.459 9.037-5.952l1.061 1.064z"></path>
</symbol>
<symbol id="icon-search-thin" viewBox="0 0 32 32">
<path d="M21.137 22.080l9.92 9.92 0.943-0.943-9.92-9.92c2.023-2.244 3.253-5.215 3.253-8.471 0-6.991-5.676-12.667-12.667-12.667s-12.667 5.676-12.667 12.667c0 6.991 5.676 12.667 12.667 12.667 3.256 0 6.227-1.231 8.471-3.253zM12.667 1.333c6.255 0 11.333 5.079 11.333 11.333s-5.079 11.333-11.333 11.333-11.333-5.079-11.333-11.333 5.079-11.333 11.333-11.333z"></path>
</symbol>
<symbol id="icon-square" viewBox="0 0 32 32">
<path d="M32 0h-32v32h32v-32z"></path>
</symbol>
<symbol id="icon-triangle" viewBox="0 0 32 32">
<path d="M16.082 4.267c-0.629 0-1.042 0.378-1.313 0.82l-12.472 20.349c-0.164 0.164-0.164 0.492-0.164 0.82 0 1.149 0.82 1.477 1.477 1.477h24.78c0.82 0 1.477-0.328 1.477-1.477 0-0.328 0-0.492-0.164-0.82l-12.308-20.349c-0.268-0.444-0.78-0.82-1.313-0.82z"></path>
</symbol>
<symbol id="icon-user" viewBox="0 0 32 32">
<path d="M16 2.667c3.676 0 6.667 2.991 6.667 6.668 0 3.675-2.991 6.667-6.667 6.667s-6.667-2.992-6.667-6.667c0-3.677 2.991-6.668 6.667-6.668zM16 0c-5.155 0-9.333 4.179-9.333 9.335 0 5.153 4.179 9.333 9.333 9.333s9.333-4.18 9.333-9.333c0-5.156-4.179-9.335-9.333-9.335zM24.492 17.804c-0.663 0.664-1.409 1.241-2.211 1.736 3.829 2.499 5.837 6.777 6.629 9.795h-25.849c0.763-3.053 2.744-7.337 6.631-9.811-0.804-0.499-1.549-1.081-2.211-1.749-5.677 4.096-7.481 11.341-7.481 14.225h32c0-2.856-1.92-10.076-7.508-14.196z"></path>
</symbol>
<symbol id="icon-user-double" viewBox="0 0 32 32">
<path d="M13.492 21.419c3.057-0.707 5.903-1.325 4.525-3.928-4.196-7.921-1.113-12.157 3.317-12.157 4.517 0 7.524 4.399 3.317 12.159-1.42 2.619 1.532 3.236 4.524 3.928 2.647 0.611 2.824 1.904 2.824 4.143l-0.004 1.104h-1.772c0-2.785 0.111-3.156-1.635-3.559-2.535-0.584-4.927-1.136-5.801-3.072-0.319-0.707-0.527-1.869 0.301-3.391 1.829-3.376 2.292-6.301 1.265-8.023-1.203-2.023-4.823-2.012-6.016-0.029-1.024 1.697-0.568 4.639 1.248 8.067 0.809 1.528 0.596 2.688 0.275 3.391-0.88 1.927-3.296 2.484-5.853 3.073-1.669 0.387-1.563 0.784-1.563 3.543h-1.775c0-2.928-0.235-4.541 2.821-5.248zM0.003 26.667h1.772c0-2.557-0.248-1.847 2.432-2.631 1.352-0.393 2.547-0.964 3.088-2.149 0.283-0.617 0.473-1.627-0.216-2.929-1.269-2.397-1.625-4.499-0.949-5.62 0.729-1.212 3.027-1.211 3.759 0.020 1.247 2.089-1.057 5.309-1.36 6.643h1.861c0.587-1.333 1.608-2.944 1.608-5.2 0-2.68-1.749-4.133-3.997-4.133-3.324 0-5.636 3.177-2.488 9.119 1.032 1.952-1.101 2.416-3.393 2.945-1.987 0.46-2.119 1.429-2.119 3.112l0.003 0.824z"></path>
</symbol>
<symbol id="icon-file-text" viewBox="0 0 32 32">
<path d="M27 0h-24c-1.65 0-3 1.35-3 3v26c0 1.65 1.35 3 3 3h24c1.65 0 3-1.35 3-3v-26c0-1.65-1.35-3-3-3zM26 28h-22v-24h22v24zM8 14h14v2h-14zM8 18h14v2h-14zM8 22h14v2h-14zM8 10h14v2h-14z"></path>
</symbol>
<symbol id="icon-arrow-up-right" viewBox="0 0 32 32">
<path d="M7.414 27.414l16.586-16.586v7.172c0 1.105 0.895 2 2 2s2-0.895 2-2v-12c0-0.809-0.487-1.538-1.235-1.848-0.248-0.103-0.508-0.151-0.765-0.151v-0.001h-12c-1.105 0-2 0.895-2 2s0.895 2 2 2h7.172l-16.586 16.586c-0.391 0.39-0.586 0.902-0.586 1.414s0.195 1.024 0.586 1.414c0.781 0.781 2.047 0.781 2.828 0z"></path>
</symbol>
</defs>
</svg>
